PathFileType	4	(X/Y/Z)	./resultDataOpenSim/trcMotMarkerGrf/sub10/qtm-01-05.trc
DataRate	CameraRate	NumFrames	NumMarkers	Units	OrigDataRate	OrigDataStartFrame	OrigNumFrames
250.000000	250.000000	8	24	m	250.000000	305	487
Frame#	Time	L.Toe.Tip			R.Toe.Tip			L.Ankle.Lat			R.Ankle.Lat			L.Ankle.Med			R.Ankle.Med			L.Heel			R.Heel			L.Knee.Lat			R.Knee.Lat			L.Knee.Med			R.Knee.Med			L.Thigh.Upper			R.Thigh.Upper			L.ASIS			R.ASIS			V.Sacral			L.Acromium			R.Acromium			C7			L.Elbow			R.Elbow			L.Wrist.Lat			R.Wrist.Lat
		X1	Y1	Z1	X2	Y2	Z2	X3	Y3	Z3	X4	Y4	Z4	X5	Y5	Z5	X6	Y6	Z6	X7	Y7	Z7	X8	Y8	Z8	X9	Y9	Z9	X10	Y10	Z10	X11	Y11	Z11	X12	Y12	Z12	X13	Y13	Z13	X14	Y14	Z14	X15	Y15	Z15	X16	Y16	Z16	X17	Y17	Z17	X18	Y18	Z18	X19	Y19	Z19	X20	Y20	Z20	X21	Y21	Z21	X22	Y22	Z22	X23	Y23	Z23	X24	Y24	Z24

305	1.216	0.036531724	0.042430641	-0.11130534	0.78992302	0.040279778	0.014027662	-0.031310962	0.15436633	-0.15576388	0.65068439	0.052621645	0.05844209	-0.0040154754	0.16464119	-0.07602383	0.6630038	0.0812241	-0.025459477	-0.091871292	0.18085551	-0.11087743	0.59732353	0.029459629	0.015191791	0.24221382	0.42691371	-0.18348013	0.61937383	0.45284249	0.088789173	0.25270342	0.39581808	-0.064901975	0.60746699	0.45746451	-0.039414597	0.37649312	0.78685063	-0.22994949	0.49321095	0.84872297	0.14134558	0.46468635	0.88850109	-0.18981289	0.52908677	0.93282507	0.045063702	0.28227616	0.92522339	-0.0069040366	0.40533444	1.3758945	-0.22538596	0.37434782	1.371403	0.10249219	0.30508098	1.3991758	-0.074762775	0.41528463	1.0214992	-0.26465522	0.22138735	1.0686994	0.11547437	0.64263441	0.92351043	-0.27375008	0.22800222	0.84136513	0.20049397
306	1.22	0.038274635	0.042333127	-0.11126254	0.7903197	0.039970206	0.01393428	-0.02457244	0.15708782	-0.15639448	0.65076294	0.052623425	0.058466242	0.0034204216	0.1664118	-0.076969401	0.66318379	0.081139276	-0.025395846	-0.083767589	0.18576258	-0.11111398	0.59747758	0.029518187	0.015336826	0.25155829	0.42617201	-0.18384176	0.62488841	0.45321509	0.089079111	0.26343023	0.39410998	-0.065900738	0.6125452	0.45840012	-0.03908328	0.38473829	0.78606591	-0.22915071	0.50076106	0.85056627	0.14195496	0.47266431	0.88821828	-0.18851003	0.53628289	0.93384737	0.045602848	0.29049149	0.92557101	-0.0073425613	0.41161911	1.3765385	-0.22500845	0.38086544	1.371902	0.10280424	0.31149654	1.3993599	-0.074479002	0.42023793	1.0221473	-0.26394955	0.2285959	1.0691112	0.11580681	0.64707258	0.922894	-0.27334069	0.23462722	0.84203947	0.20140973
307	1.224	0.040099821	0.042495059	-0.11134508	0.79059709	0.039768747	0.0137274	-0.017514332	0.15980492	-0.15701637	0.65082669	0.052635488	0.058491557	0.011000623	0.16818424	-0.077918949	0.66320552	0.081073487	-0.025310865	-0.075394171	0.19073832	-0.11156369	0.59760613	0.029557175	0.015508747	0.26118069	0.42535033	-0.18426599	0.63007258	0.45347047	0.089350807	0.27468668	0.39230378	-0.067021632	0.61760932	0.45929799	-0.038666895	0.39293981	0.7852806	-0.22835398	0.50815297	0.85239165	0.14256199	0.48053721	0.8879718	-0.18723864	0.54337551	0.93484973	0.046085952	0.29890191	0.92582903	-0.0078898017	0.41788823	1.3771853	-0.22464862	0.38738951	1.3724039	0.10308716	0.31784207	1.3995112	-0.074128836	0.42517745	1.022818	-0.26323495	0.23579581	1.0695485	0.11618138	0.65143148	0.92222933	-0.27294786	0.24139731	0.84268634	0.20233918
308	1.228	0.042135606	0.043015591	-0.11157739	0.79082215	0.039606015	0.013653619	-0.010203735	0.16258632	-0.15765854	0.65091981	0.052641488	0.058534084	0.018699583	0.17001267	-0.078849074	0.66322744	0.081011049	-0.025212396	-0.066798917	0.19578387	-0.11227267	0.59772764	0.029584938	0.015683001	0.27108949	0.42444984	-0.18475917	0.63496746	0.4536185	0.089628937	0.28643691	0.3902971	-0.068005845	0.62261103	0.46013272	-0.038202911	0.40109685	0.78448668	-0.22754976	0.51538535	0.85418778	0.14317532	0.48828162	0.88775223	-0.18602327	0.5503755	0.93582123	0.046514004	0.30732685	0.92607231	-0.0084492961	0.42413222	1.3778313	-0.22431754	0.39391995	1.3729114	0.10334901	0.32412947	1.3996739	-0.073704813	0.4301117	1.0235073	-0.26250256	0.24287535	1.0699755	0.11659145	0.65570789	0.92152007	-0.27257334	0.24831176	0.84329938	0.20327588
309	1.232	0.044497832	0.043920228	-0.11192499	0.79104179	0.039447247	0.013768794	-0.0026723958	0.16547992	-0.15839181	0.65103688	0.052628658	0.058619717	0.026523142	0.17193938	-0.079718099	0.66334	0.080953595	-0.025099284	-0.058015671	0.2008564	-0.1131978	0.59784188	0.029603947	0.015861641	0.28129149	0.42347172	-0.18532897	0.63957876	0.45368716	0.089956338	0.29855359	0.38805269	-0.068737249	0.62751702	0.46086925	-0.037727696	0.4092041	0.78368626	-0.22672931	0.52245279	0.85594354	0.14379423	0.49587524	0.88755647	-0.1848872	0.55730117	0.93675245	0.046902582	0.31568453	0.92632713	-0.008988017	0.43035759	1.3784779	-0.22401222	0.40044444	1.3734311	0.10360166	0.33039346	1.3998778	-0.073264836	0.43503906	1.0242131	-0.26175501	0.24988429	1.0703858	0.11703641	0.65990207	0.92077278	-0.27222114	0.25536285	0.84387528	0.20421342
310	1.236	0.047252356	0.04516791	-0.11231454	0.79125093	0.039293453	0.013965718	0.00511491	0.16847911	-0.15923197	0.65113108	0.052609419	0.058771227	0.034498297	0.17399677	-0.080477427	0.66352995	0.080914153	-0.024969029	-0.049059471	0.20590902	-0.11422195	0.59793501	0.029615457	0.016054378	0.29179124	0.42241518	-0.18598998	0.64388916	0.45370132	0.090367221	0.31081857	0.38565353	-0.069337391	0.63231399	0.4614806	-0.037271482	0.41725117	0.78288952	-0.22590646	0.52935277	0.85765027	0.14441392	0.50327879	0.88737239	-0.18387317	0.56416492	0.93764445	0.047277273	0.32394826	0.92658989	-0.0095072064	0.43657733	1.3791255	-0.22372154	0.40695405	1.3739644	0.10384066	0.33665786	1.4001337	-0.072866188	0.43995314	1.0249345	-0.26100037	0.2569609	1.0707872	0.11752014	0.66402157	0.91998881	-0.2718946	0.26255174	0.84441723	0.20515223
311	1.24	0.050416861	0.046694925	-0.11268213	0.79141737	0.03916189	0.014115592	0.013228003	0.17152764	-0.16008735	0.65115349	0.052613761	0.058994947	0.042653936	0.17620722	-0.081086414	0.66371928	0.080900213	-0.024824077	-0.039887636	0.21091506	-0.11527719	0.59799402	0.029622115	0.016259859	0.30259398	0.42127391	-0.18676981	0.6478933	0.45367346	0.090853211	0.32306696	0.38320753	-0.069949565	0.63699283	0.46196156	-0.036855285	0.42522506	0.78211108	-0.2251104	0.53608929	0.85929911	0.14503287	0.51046735	0.88718909	-0.18301854	0.57096006	0.93851054	0.047658899	0.33215594	0.9268503	-0.010018084	0.44279519	1.3797737	-0.22344455	0.41345321	1.3745081	0.10405223	0.34292499	1.4004423	-0.072527592	0.44484696	1.025671	-0.26024741	0.26418964	1.0711937	0.11804455	0.66807647	0.91916199	-0.27159309	0.26990315	0.84493146	0.20610248
312	1.244	0.053996134	0.048458297	-0.11300457	0.79152477	0.039062382	0.014175165	0.02170543	0.17456712	-0.16084759	0.65110036	0.052653986	0.059258253	0.050998465	0.17857179	-0.081529158	0.66384007	0.080905073	-0.024673975	-0.030416466	0.21585803	-0.11636906	0.59801916	0.02962837	0.016464069	0.31371535	0.42003504	-0.18770345	0.65161294	0.45361159	0.091364827	0.33528207	0.38079123	-0.070570896	0.64151099	0.46232309	-0.036473183	0.43311207	0.7813665	-0.22436152	0.54266875	0.86087755	0.14565198	0.51751113	0.88703823	-0.18228493	0.57766554	0.93936335	0.048050938	0.34050203	0.92710845	-0.010537031	0.44899964	1.3804246	-0.22319509	0.41995138	1.3750618	0.10423655	0.34918992	1.4008056	-0.072239976	0.44971423	1.0264219	-0.25950389	0.27153401	1.0716141	0.11860725	0.67207206	0.91828734	-0.27131536	0.27745894	0.84542223	0.20707909
